<svg xmlns="http://www.w3.org/2000/svg" version="1.1" xmlns:xlink="http://www.w3.org/1999/xlink" xmlns:svgjs="http://svgjs.dev/svgjs" width="1440" height="560" preserveAspectRatio="none" viewBox="0 0 1440 560"><g mask="url(&quot;#SvgjsMask1006&quot;)" fill="none"><rect width="1440" height="560" x="0" y="0" fill="url(&quot;#SvgjsLinearGradient1007&quot;)"></rect><path d="M1464 560L0 560 L0 291.63Q62.82 282.45, 72 345.27Q119.58 320.85, 144 368.43Q159.96 264.39, 264 280.35Q338.03 234.38, 384 308.42Q429.88 282.31, 456 328.19Q516.17 316.37, 528 376.54Q549.01 325.56, 600 346.57Q651.23 277.79, 720 329.02Q765.98 255, 840 300.97Q890.41 231.38, 960 281.79Q1037.14 238.93, 1080 316.07Q1151.23 267.3, 1200 338.53Q1274.05 292.57, 1320 366.62Q1334.34 308.96, 1392 323.3Q1416.6 275.89, 1464 300.49z" fill="#182f5d"></path><path d="M1560 560L0 560 L0 350.62Q57.64 336.26, 72 393.91Q100.76 350.67, 144 379.43Q190.6 306.03, 264 352.64Q325.74 342.38, 336 404.11Q365.49 361.6, 408 391.08Q469.53 380.61, 480 442.14Q522 364.14, 600 406.15Q672.51 358.66, 720 431.18Q740.29 331.47, 840 351.76Q881.88 321.64, 912 363.53Q957.18 336.71, 984 381.89Q1051.66 377.56, 1056 445.22Q1103.49 372.72, 1176 420.21Q1217.14 389.35, 1248 430.49Q1282.63 345.12, 1368 379.74Q1393.01 332.75, 1440 357.77Q1535.35 333.12, 1560 428.47z" fill="#25467d"></path><path d="M1512 560L0 560 L0 427.29Q69.69 376.98, 120 446.66Q177.3 431.96, 192 489.25Q194.54 419.79, 264 422.33Q330.26 368.59, 384 434.85Q426.64 405.5, 456 448.14Q533.49 405.63, 576 483.11Q652.63 439.74, 696 516.36Q709.43 457.8, 768 471.23Q813.65 444.88, 840 490.53Q908.4 438.93, 960 507.34Q965.51 440.85, 1032 446.35Q1101.35 395.7, 1152 465.04Q1222.16 415.21, 1272 485.37Q1304.69 398.06, 1392 430.76Q1458.03 376.79, 1512 442.82z" fill="#356cb1"></path><path d="M1512 560L0 560 L0 562.01Q58.81 500.82, 120 559.63Q166.65 534.28, 192 580.93Q212.67 481.6, 312 502.27Q382.19 452.46, 432 522.65Q502.95 473.6, 552 544.55Q624.65 497.2, 672 569.85Q697.26 475.12, 792 500.38Q840.05 476.43, 864 524.49Q907.77 496.26, 936 540.03Q1004.72 488.75, 1056 557.47Q1071.52 501, 1128 516.52Q1174.85 443.37, 1248 490.21Q1311.07 481.28, 1320 544.35Q1367.44 471.79, 1440 519.23Q1503.55 510.78, 1512 574.33z" fill="white"></path></g><defs><mask id="SvgjsMask1006"><rect width="1440" height="560" fill="#ffffff"></rect></mask><linearGradient x1="15.28%" y1="-39.29%" x2="84.72%" y2="139.29%" gradientUnits="userSpaceOnUse" id="SvgjsLinearGradient1007"><stop stop-color="#0e2a47" offset="0"></stop><stop stop-color="#00459e" offset="1"></stop></linearGradient></defs></svg>